<?xml version="1.0" standalone="no"?>
<!DOCTYPE svg PUBLIC "-//W3C//DTD SVG 20010904//EN"
 "http://www.w3.org/TR/2001/REC-SVG-20010904/DTD/svg10.dtd">
<svg version="1.0" xmlns="http://www.w3.org/2000/svg"
 width="247.000000pt" height="247.000000pt" viewBox="0 0 247.000000 247.000000"
 preserveAspectRatio="xMidYMid meet">
<metadata>
Created by potrace 1.11, written by Peter Selinger 2001-2013
</metadata>
<g transform="translate(0.000000,247.000000) scale(0.100000,-0.100000)"
fill="#000000" stroke="none">
<path d="M1618 2098 c-46 -37 -16 -100 64 -134 55 -23 182 -27 221 -8 32 17
36 35 5 31 -40 -7 -113 15 -156 47 -24 17 -57 41 -74 54 -36 26 -39 26 -60 10z"/>
<path d="M1208 2063 c-18 -8 -55 -31 -83 -52 -42 -33 -64 -41 -140 -54 -192
-34 -294 -65 -430 -131 -208 -101 -394 -271 -401 -366 -1 -14 11 -54 26 -90
37 -90 64 -201 104 -440 66 -393 59 -366 120 -425 51 -50 220 -170 299 -213
48 -26 112 -27 248 -6 46 8 100 16 119 19 86 12 111 16 200 31 52 9 104 17
115 19 25 3 102 15 135 20 14 2 108 18 210 34 342 56 316 28 426 461 35 138
55 219 58 235 22 97 50 190 71 243 15 35 27 71 27 80 7 145 -156 340 -352 422
-30 13 -60 27 -65 31 -6 4 -29 13 -50 18 -22 6 -74 20 -115 31 -41 12 -100 25
-130 30 -60 10 -240 24 -280 22 l-25 -2 25 13 c32 16 36 41 10 67 -23 23 -70
24 -122 3z m79 -79 c-3 -3 -12 -4 -19 -1 -8 3 -5 6 6 6 11 1 17 -2 13 -5z"/>
</g>
</svg>
